<?xml version="1.0" standalone="no"?>
<!DOCTYPE svg PUBLIC "-//W3C//DTD SVG 20010904//EN"
 "http://www.w3.org/TR/2001/REC-SVG-20010904/DTD/svg10.dtd">
<svg version="1.0" xmlns="http://www.w3.org/2000/svg"
 width="445.000000pt" height="357.000000pt" viewBox="0 0 445.000000 357.000000"
 preserveAspectRatio="xMidYMid meet">

<g transform="translate(0.000000,357.000000) scale(0.100000,-0.100000)"
fill="#000000" stroke="none">
<path d="M1747 3034 c-4 -4 -7 -27 -7 -51 0 -36 6 -50 29 -74 25 -25 37 -29
84 -29 29 0 76 7 103 15 95 29 145 13 163 -52 9 -31 8 -33 -31 -55 -39 -22
-87 -73 -77 -82 8 -8 279 -9 286 -2 15 15 -24 62 -68 84 -40 20 -48 29 -58 66
-13 54 -48 92 -97 105 -31 8 -55 7 -119 -9 -44 -11 -89 -20 -100 -20 -36 0
-64 28 -67 68 -3 35 -23 53 -41 36z m373 -268 c0 -14 -41 -46 -60 -46 -20 0
-10 26 18 42 33 21 42 22 42 4z"/>
<path d="M1537 2752 c-10 -10 -17 -26 -17 -35 0 -14 19 -16 146 -19 185 -4
254 0 254 16 0 6 -7 22 -16 34 -15 21 -21 22 -183 22 -150 0 -170 -2 -184 -18z"/>
<path d="M2416 2754 c-9 -8 -16 -24 -16 -34 0 -18 11 -19 153 -22 253 -5 278
1 227 52 -18 18 -33 20 -184 20 -136 0 -167 -3 -180 -16z"/>
<path d="M1228 2631 l-33 -29 -3 -421 c-3 -461 -1 -474 55 -500 24 -11 330
-13 1641 -11 l174 0 29 29 29 29 0 426 c0 308 -3 432 -12 451 -26 57 10 55
-957 55 l-891 0 -32 -29z m1592 -81 c19 -19 20 -33 20 -383 0 -312 -2 -366
-16 -385 l-15 -22 -704 0 -704 0 -15 22 c-14 19 -16 73 -16 385 0 350 1 364
20 383 20 20 33 20 715 20 682 0 695 0 715 -20z m-1530 -391 c0 -128 -2 -140
-17 -137 -16 3 -18 19 -21 132 -3 124 5 165 29 150 5 -3 9 -68 9 -145z m1730
131 c18 -18 20 -33 20 -127 0 -119 -10 -143 -61 -143 -47 0 -59 30 -59 145 0
102 7 126 40 138 27 10 40 7 60 -13z"/>
<path d="M1695 2375 c-21 -20 -25 -34 -25 -80 l0 -55 -53 0 c-75 0 -97 -18
-97 -79 0 -62 16 -76 89 -78 l56 -1 6 -61 c7 -76 20 -91 75 -91 61 0 84 27 84
97 l0 53 51 0 c43 0 55 5 80 29 36 36 37 73 4 106 -20 21 -34 25 -80 25 -60 0
-58 -2 -55 67 3 81 -81 123 -135 68z m83 -17 c13 -13 17 -48 5 -48 -12 0 -43
33 -43 47 0 16 22 17 38 1z m162 -163 c7 -8 10 -22 6 -30 -8 -22 -46 -1 -46
25 0 24 22 26 40 5z"/>
<path d="M2575 2225 c-35 -34 -33 -78 4 -116 39 -38 74 -38 113 1 26 27 30 36
25 68 -12 70 -92 97 -142 47z m115 -25 c15 -28 4 -43 -21 -30 -22 12 -26 50
-4 50 8 0 19 -9 25 -20z"/>
<path d="M2256 2218 c-30 -42 -19 -91 25 -114 26 -13 32 -13 58 0 44 23 55 72
25 114 -21 31 -87 31 -108 0z m105 -19 c8 -16 8 -24 -1 -33 -9 -8 -16 -5 -31
13 -10 12 -16 27 -13 32 9 16 33 10 45 -12z"/>
<path d="M868 1213 l-38 -4 0 -97 c0 -79 4 -103 20 -129 26 -43 58 -63 116
-69 70 -9 126 9 163 51 30 35 31 38 31 140 l0 105 -55 0 -55 0 0 -88 c0 -95
-12 -122 -57 -122 -36 0 -48 28 -53 124 -5 99 -3 96 -72 89z"/>
<path d="M1273 1205 c-41 -18 -67 -57 -59 -90 10 -39 45 -64 108 -76 60 -12
80 -25 59 -39 -12 -7 -60 -1 -123 15 -22 6 -27 2 -41 -32 l-15 -38 29 -12 c44
-19 158 -27 206 -14 47 13 83 51 83 88 0 48 -50 78 -163 98 -23 4 -37 11 -34
18 4 13 65 15 112 4 27 -6 32 -4 48 24 9 17 15 34 12 39 -17 27 -169 38 -222
15z"/>
<path d="M2208 1213 l-48 -4 0 -144 0 -143 50 -4 c28 -1 55 -1 60 0 6 2 10 36
10 74 0 39 3 68 6 65 4 -3 14 -35 24 -69 l17 -63 46 -3 46 -3 16 58 c26 91 30
93 33 16 l3 -73 54 0 55 0 0 145 0 145 -79 0 -79 0 -17 -72 c-26 -106 -30
-110 -49 -45 -9 31 -19 70 -22 87 -5 23 -12 30 -29 30 -13 0 -29 1 -37 3 -7 2
-34 2 -60 0z"/>
<path d="M3078 1212 l-68 -3 0 -144 0 -145 55 0 c54 0 55 0 55 30 0 23 5 30
19 30 11 0 23 -12 31 -30 12 -28 15 -30 70 -30 l58 0 -21 38 -21 39 22 28 c24
30 30 101 12 136 -23 41 -90 57 -212 51z m112 -97 c19 -23 4 -45 -30 -45 -32
0 -47 18 -36 45 7 19 50 19 66 0z"/>
<path d="M3463 1213 l-133 -4 0 -39 0 -40 50 0 50 0 0 -105 0 -105 60 0 60 0
0 104 0 105 48 3 c46 3 47 4 50 39 3 31 -1 37 -20 43 -13 3 -25 5 -28 4 -3 -1
-65 -4 -137 -5z"/>
<path d="M1560 1065 l0 -145 55 0 55 0 0 59 c0 64 14 88 24 43 27 -108 22
-102 75 -102 l48 0 13 58 c20 91 29 95 30 15 l0 -73 60 0 60 0 0 145 0 145
-83 0 -84 0 -18 -80 c-10 -45 -22 -83 -26 -85 -3 -3 -12 17 -18 43 -7 26 -16
64 -22 85 l-10 37 -79 0 -80 0 0 -145z"/>
<path d="M2727 1203 c-6 -10 -107 -273 -107 -279 0 -2 27 -4 59 -4 43 0 60 4
65 15 4 10 20 15 51 15 31 0 47 -5 51 -15 5 -11 22 -15 66 -15 52 0 59 2 54
18 -3 9 -27 73 -54 142 l-48 125 -66 3 c-37 2 -68 -1 -71 -5z m83 -154 c0 -10
-7 -19 -15 -19 -15 0 -21 31 -9 43 11 10 24 -3 24 -24z"/>
</g>
</svg>
